<svg width="192" height="192" viewBox="0 0 192 192" fill="none" xmlns="http://www.w3.org/2000/svg">
  <rect width="192" height="192" rx="38" fill="#0C0A14" />
  <rect x="16" y="16" width="160" height="160" rx="30" fill="#18162E" stroke="rgba(200,169,126,0.35)" />
  <path d="M50 52C50 45.3726 55.3726 40 62 40H130C136.627 40 142 45.3726 142 52V140L118 124L94 140L70 124L50 140V52Z" fill="#2A2346" stroke="#C8A97E" stroke-width="4"/>
  <path d="M70 72H122M70 92H122M70 112H106" stroke="#EAEAF4" stroke-opacity="0.88" stroke-width="5" stroke-linecap="round"/>
  <circle cx="146" cy="56" r="18" fill="#C8A97E"/>
  <path d="M143 49C149 52 149 60 143 63" stroke="#0C0A14" stroke-width="3.5" stroke-linecap="round"/>
  <path d="M139 52C142 54 142 58 139 60" stroke="#0C0A14" stroke-width="3.5" stroke-linecap="round"/>
</svg>
